<svg xmlns="http://www.w3.org/2000/svg" width="188" height="50" viewBox="0 0 188 50">
  <path d="m65.37 30.97v-13.55c0-1.53 0.82-2.05 2.24-2.05h4.11c3.29 0 5.22 2.12 5.22 4.59 0 1.5-0.77 2.79-2.11 3.65 1.72 0.74 2.73 2.08 2.73 4.05 0 2.91-2.05 5.1-5.77 5.1h-4.2c-1.42 0-2.22-0.57-2.22-1.79zm5.94-12.65h-2.49v4.27h2.49c1.5 0 2.3-0.98 2.3-2.13 0-1.25-0.88-2.14-2.3-2.14zm0.31 7.04h-2.8v4.65h2.82c1.79 0 2.67-1.1 2.67-2.47 0-1.17-0.9-2.18-2.69-2.18z" fill="#3C3C3B"/>
  <path d="m79.46 31.29v-9.28c0-1.03 0.64-1.65 1.65-1.65 1.03 0 1.65 0.62 1.65 1.65v3.05h0.95l2.91-4.08c0.39-0.55 0.86-0.62 1.33-0.62 0.96 0 1.66 0.95 1.19 1.88l-2.88 4.27 3.12 4.37c0.6 0.9-0.31 2.03-1.36 2.03-0.54 0-1.06-0.24-1.5-0.9l-2.72-4.11h-1.03v3.39c0 1.03-0.64 1.62-1.65 1.62-1 0-1.66-0.59-1.66-1.62z" fill="#3C3C3B"/>
  <path d="m91.49 38c-1.08 0-1.63-0.83-1.36-1.81 0.19-0.7 0.78-0.84 1.4-0.91 0.98-0.14 1.75-0.69 2.35-2.55l-3.9-10.17c-0.42-1.1 0.41-2.2 1.63-2.2 0.77 0 1.26 0.42 1.5 1.25l2.52 7 2.19-7.1c0.24-0.8 0.79-1.15 1.49-1.15 1.1 0 1.87 0.96 1.45 2.25l-3.15 9.65c-1.25 3.93-2.92 5.74-6.12 5.74z" fill="#3C3C3B"/>
  <path d="m102.2 28.21v-3.17c0-2.93 1.57-4.77 5.27-4.77 2.22 0 4.1 0.69 4.1 2.08 0 0.77-0.6 1.37-1.4 1.37-0.67 0-1.29-0.64-2.58-0.64-1.6 0-2.07 0.75-2.07 2.17v2.77c0 1.42 0.57 2.16 2.12 2.16 1.32 0 1.76-0.69 2.56-0.69 0.85 0 1.42 0.59 1.42 1.36 0 1.37-2.03 2.11-4.17 2.11-3.56 0-5.25-1.74-5.25-4.75z" fill="#3C3C3B"/>
  <path d="m113.8 31.29v-9.28c0-1.03 0.64-1.65 1.65-1.65 1.03 0 1.65 0.62 1.65 1.65v2.98h4.17v-2.98c0-1.03 0.64-1.65 1.65-1.65 1.03 0 1.65 0.62 1.65 1.65v9.28c0 1.03-0.64 1.62-1.65 1.62-1.03 0-1.65-0.59-1.65-1.62v-3.51h-4.17v3.51c0 1.03-0.64 1.62-1.65 1.62-1.03 0-1.65-0.59-1.65-1.62z" fill="#3C3C3B"/>
  <path d="m127.3 31.24 2.63-3.73c-1.69-0.64-2.55-1.89-2.55-3.53 0-2.17 1.45-3.62 4.36-3.62h4.2c1.1 0 1.82 0.55 1.82 1.7v9.25c0 1.03-0.64 1.6-1.65 1.6-1.03 0-1.65-0.57-1.65-1.6v-3.1h-1.22l-2.7 4.01c-0.45 0.67-1.11 0.69-1.48 0.69-1.32 0-2.3-0.9-1.76-1.67zm7.16-5.53v-2.7h-2.24c-1.27 0-1.69 0.5-1.69 1.33 0 0.77 0.52 1.37 1.74 1.37h2.19z" fill="#3C3C3B"/>
  <path d="m140.7 30.88v-8.92c0-1.03 0.64-1.6 1.65-1.6 1.03 0 1.65 0.57 1.65 1.6v8.02h3.1v-8.02c0-1.03 0.64-1.6 1.65-1.6s1.65 0.57 1.65 1.6v8.02h3.1v-8.02c0-1.03 0.64-1.6 1.65-1.6 1.03 0 1.65 0.57 1.65 1.6v8.92c0 1.1-0.79 1.87-1.99 1.87h-12.09c-1.27 0-2.02-0.77-2.02-1.87z" fill="#3C3C3B"/>
  <path d="m159.7 31.29v-9.28c0-1.03 0.64-1.65 1.65-1.65 1.03 0 1.65 0.62 1.65 1.65v3.05h0.95l2.91-4.08c0.39-0.55 0.86-0.62 1.33-0.62 0.96 0 1.66 0.95 1.19 1.88l-2.88 4.27 3.12 4.37c0.6 0.9-0.31 2.03-1.36 2.03-0.54 0-1.06-0.24-1.5-0.9l-2.72-4.11h-1.03v3.39c0 1.03-0.64 1.62-1.65 1.62-1.02 0-1.66-0.59-1.66-1.62z" fill="#3C3C3B"/>
  <path d="m171.4 29.42c0-2.7 2.03-3.9 4.68-3.9 0.85 0 1.62 0.14 2.39 0.43v-0.88c0-1.29-0.6-1.99-2.17-1.99-1.37 0-2.09 0.64-2.91 0.64-0.77 0-1.32-0.64-1.32-1.36 0-1.27 2.17-2.07 4.5-2.07 3.49 0 5.11 1.67 5.11 4.94v4.78c0 0.5 0.12 0.67 0.49 0.79 0.67 0.22 0.99 0.61 0.99 1.23 0 0.74-0.62 1.19-1.8 1.19-1.1 0-1.9-0.45-2.39-1.38-0.93 0.8-2.2 1.17-3.59 1.17-2.45-0.02-3.98-1.44-3.98-3.59zm6.93 0.24v-1.86c-0.7-0.29-1.36-0.41-2.01-0.41-1.29 0-1.91 0.7-1.91 1.68 0 0.88 0.67 1.35 1.65 1.35 0.8 0 1.6-0.29 2.27-0.76z" fill="#3C3C3B"/>
  <path d="m56.37 13.56c-1.6-7.45-7.62-11.26-13.76-11.26-5.65 0-9.46 2.81-12.5 7.21-3.04-4.4-6.85-7.21-12.5-7.21-6.14 0-12.16 3.81-13.76 11.26-1.34 6.53 1.27 11.71 5.34 15.78l7.63 7.46c1.44 1.41 2.99 0.89 4-0.12l4.96-4.96 2.18 2.18-4.28 5.43c-0.96 1.34-0.49 2.86 0.66 3.89l3.43 2.99c1.65 1.42 3.34 1.49 5.26-0.2l2.99-2.74c1.2-1.2 1.15-2.74-0.29-4.21l-10.52-11.23c-1.08-1.2-1.68-1.77-3.35-1.77-4.68 0-8.22-3.15-9.85-7.36-1.32-3.59-0.95-7.03 2.91-7.45 4.17-0.47 10.31 3.96 10.65 7.91 0.22 1.79-0.25 2.8 0.05 4.27 0.19 1.01 0.69 1.73 1.49 2.42l11.9 10.64c1.74 1.6 3.55 1.18 4.8-0.14l7.17-7.43c4.1-4.07 6.73-8.83 5.39-15.36zm-6.75 2.35-6.86 8.65c-1.42 1.79-3.45 1.52-4.55 1.35-1.1-0.16-2.13 0.26-2.98 1.16l-1.25 1.37-2-1.83 1.47-1.37c0.9-0.9 0.97-1.83 0.8-3.33-0.27-1.69 0.22-3.26 1.47-4.55l8.7-7.18c0.69-0.64 1.16-0.37 1.35-0.07 0.24 0.34 0.05 0.88-0.36 1.3l-6.77 6.77 0.74 0.74 7.13-6.67c0.7-0.69 1.19-0.55 1.43-0.26 0.34 0.37 0.22 0.96-0.38 1.63l-6.58 7.09 0.8 0.8 6.86-6.86c0.47-0.47 1.07-0.74 1.43-0.38 0.34 0.34 0.27 0.84-0.45 1.64z" fill="#F39D45"/>
</svg>