<svg xmlns="http://www.w3.org/2000/svg" width="250" height="250" fill="none" viewBox="0 0 250 250">
<!-- SVG created with Arrow, by QuiverAI (https://quiver.ai) -->
  <path d="m90.16 117.2c0-2.35 1.06-2.92 3.07-2.92h4.61c4.14 0 7.47 1.28 7.47 5.31 0 1.82-0.95 3.56-2.91 4.59 2.49 0.8 3.75 2.51 3.75 4.93 0 4.12-3.04 5.91-7.54 5.91h-5.38c-2.01 0-3.07-0.8-3.07-3.05v-14.77zm4.96 5.5h2.39c2.17 0 2.95-1.09 2.95-2.4 0-1.62-1.29-2.16-2.68-2.16h-1.87c-0.63 0-0.79 0.25-0.79 0.85v3.71zm0 7.64c0 0.6 0.26 0.82 0.92 0.82h2.03c2.29 0 3.24-0.97 3.24-2.63 0-1.54-1.13-2.34-3.19-2.34h-3v4.15z" fill="url(#paint0_linear_131_105)"/>
  <path d="m113.3 125.2 3.89-4.89c0.75-0.97 1.45-1.14 2.15-1.14 1.44 0 2.47 1.59 1.59 2.92l-3.12 4.11 4.4 5.93c1.08 1.59-0.36 3.3-1.98 3.3-0.8 0-1.65-0.33-2.32-1.46l-2.98-4.78-1.63 0.7v2.71c0 2.16-1.16 2.76-2.5 2.76-1.39 0-2.34-0.6-2.34-2.76v-10.63c0-1.96 1.05-2.7 2.34-2.7 1.44 0 2.5 0.65 2.5 2.7v3.23z" fill="url(#paint1_linear_131_105)"/>
  <path d="m133.3 120.8c0.5-1.5 1.13-1.72 2.13-1.72 1.54 0 2.7 1.17 2.1 3.22l-3.89 11.85c-1.49 4.66-3.26 6.82-6.95 6.82-2.16 0-3.11-0.97-3.11-2.26 0-1.07 0.8-1.64 1.99-1.64 1.82 0 2.77-0.97 3.34-3.09l-4.48-11.33c-0.9-2.35 0.39-3.57 1.98-3.57 1.5 0 2.02 0.8 2.52 2.42l2.27 7.65 2.1-8.35z" fill="url(#paint2_linear_131_105)"/>
  <path d="m147.3 119c3.17 0 5.51 1.37 5.51 3.12 0 1.07-0.85 2.02-1.99 2.02-0.95 0-1.6-1.07-3.24-1.07-2.29 0-3.19 1.97-3.19 4.23 0 2.42 1.1 4.01 3.06 4.01 1.87 0 2.37-1.09 3.39-1.09 1.07 0 1.82 1.02 1.82 1.96 0 1.97-2.59 3.26-5.38 3.26-4.83 0-7.67-3.06-7.67-7.86 0-4.69 2.69-8.58 7.69-8.58z" fill="url(#paint3_linear_131_105)"/>
  <path d="m159.4 125h5.26v-2.97c0-2 0.95-2.74 2.39-2.74 1.39 0 2.39 0.69 2.39 2.74v10.63c0 1.97-1 2.71-2.39 2.71-1.44 0-2.39-0.69-2.39-2.71v-3.75h-5.26v3.75c0 1.97-1.05 2.71-2.44 2.71-1.44 0-2.44-0.69-2.44-2.71v-10.63c0-2 1-2.74 2.34-2.74 1.44 0 2.54 0.69 2.54 2.74v2.97z" fill="url(#paint4_linear_131_105)"/>
  <path d="m185.5 132.6c0 2.02-1.05 2.76-2.44 2.76-1.44 0-2.39-0.69-2.39-2.76v-3.43h-1.54c-1.07 0-1.72 0.75-2.37 2.09l-0.95 2.07c-0.67 1.44-1.66 2.03-2.96 2.03-1.39 0-2.58-1.09-2.11-2.63l0.6-1.92c0.4-1.29 1.3-2.24 2.54-2.64-1.84-0.84-2.64-2.04-2.64-3.93 0-2.92 1.99-4.84 6.5-4.84h4.65c1.96 0 3.11 0.7 3.11 2.92v10.28zm-4.83-9.13c0-0.5-0.25-0.7-0.8-0.7h-1.49c-1.44 0-2.29 0.65-2.29 1.89 0 1.1 0.95 1.77 2.59 1.77h1.99v-2.96z" fill="url(#paint5_linear_131_105)"/>
  <path d="m193.9 130.3c0 0.49 0.15 0.69 0.7 0.69h3.11v-8.94c0-2 1-2.74 2.34-2.74 1.44 0 2.49 0.69 2.49 2.74v8.94h3.11c0.55 0 0.7-0.2 0.7-0.69v-8.25c0-2 1-2.74 2.44-2.74s2.44 0.69 2.44 2.74v10.14c0 1.79-0.9 2.88-2.84 2.88h-17.28c-1.74 0-2.09-1.09-2.09-2.88v-10.14c0-2 1-2.74 2.44-2.74 1.39 0 2.44 0.69 2.44 2.74v8.25z" fill="url(#paint6_linear_131_105)"/>
  <path d="m218.8 125.2 3.89-4.89c0.75-0.97 1.45-1.14 2.15-1.14 1.44 0 2.46 1.59 1.59 2.92l-3.12 4.11 4.4 5.93c1.09 1.59-0.35 3.3-1.96 3.3-0.8 0-1.65-0.33-2.32-1.46l-2.98-4.78-1.64 0.7v2.71c0 2.16-1.15 2.76-2.49 2.76-1.39 0-2.34-0.6-2.34-2.76v-10.63c0-1.96 1.05-2.7 2.34-2.7 1.44 0 2.49 0.65 2.49 2.7v3.23h-0.01z" fill="url(#paint7_linear_131_105)"/>
  <path d="m243.5 130.6c0 1 0.3 1.62 0.3 2.42 0 1.29-1.15 2.24-2.54 2.24-1.64 0-2.39-1.1-2.54-2.39-1.44 1.87-3.08 2.39-5.2 2.39-3.06 0-4.85-1.99-4.85-4.78 0-3.11 2.49-4.88 6.65-4.88 0.9 0 1.85 0.1 2.6 0.35v-1c0-1.44-0.85-2.19-2.69-2.19-1.4 0-2.44 0.65-3.44 0.65-1.09 0-1.84-0.8-1.84-1.85 0-1.49 2.39-2.49 5.63-2.49 4.55 0 7.92 1.49 7.92 6.68v4.85zm-4.88-1.89c-0.65-0.25-1.25-0.3-1.9-0.3-1.79 0-2.89 0.75-2.89 1.95 0 1.04 0.8 1.54 1.94 1.54 1.1 0 2.05-0.65 2.85-1.54v-1.65z" fill="url(#paint8_linear_131_105)"/>
  <path d="m41.24 106.1c4.71-7.22 10.08-10.81 18.32-11.09 10.36-0.34 17.73 8.79 17.83 18.88 0.1 8.43-4 16.13-11.37 24.41-6.71 7.5-15.9 13.87-21.22 15.46-4.09 1.24-10.66-1.14-10.31-4.63 0.2-2.09 1.45-3.18 2.7-4.77l9.69-10.63c1.99-2.29 2.84-2.09 4.54-1.64 2.49 0.69 4.73 0.64 7.52-2.67 2.99-3.54 5.78-7.45 7.22-10.04 0.65-1.14-0.05-1.54-0.9-0.55l-8.02 8.65c-0.9 0.99-2.39-0.1-1.39-1.25l8.07-9.04c0.8-0.9 0.05-1.64-0.8-0.75l-8.57 8.65c-0.94 0.94-1.94-0.15-1.04-1.2l8.27-9.14c0.85-0.99 0.2-1.64-0.9-0.69l-8.87 8.26c-1.29 1.2-2.49-0.05-1.39-1.2l9.17-8.45c0.94-0.9 0.39-1.64-0.7-0.9-2.59 1.89-6.38 5.02-9.72 7.96-2.99 2.74-2.99 4.71-2.74 7.25 0.2 1.89 0.1 2.64-2.04 4.63l-11.68 10.88c-3.99 3.86-9.86 2.71-12.3-0.38-2.99-3.76 0.6-9.68 4.54-12.32 2.19-0.89 2.79-0.1 5.03-0.35 6.01-0.64 10.63-6.62 10.63-12.4 0-4.12-3.09-6.06-6.08-5.86-5.67 0.34-12.63 6.61-12.38 11.69 0.1 2.19 0.3 2.79-1.34 4.98-2.79 3.76-6.98 6.57-10.57 1.77-3.54-4.68-4.84-10.42-4.74-15.81 0.25-9.89 7.77-18.24 18-18.49 8.37-0.3 13.94 3.91 17.54 10.78z" fill="#F4A240"/>
  <defs>
    <linearGradient id="paint0_linear_131_105" x1="98.16" x2="98.16" y1="114.3" y2="135.1" gradientUnits="userSpaceOnUse">
      <stop stop-color="#D46E1A" offset="0"/>
      <stop stop-color="#D07217" offset="1"/>
    </linearGradient>
    <linearGradient id="paint1_linear_131_105" x1="115.3" x2="115.3" y1="119.1" y2="135.5" gradientUnits="userSpaceOnUse">
      <stop stop-color="#D46E1A" offset="0"/>
      <stop stop-color="#D07217" offset="1"/>
    </linearGradient>
    <linearGradient id="paint2_linear_131_105" x1="130.5" x2="130.5" y1="119.1" y2="141" gradientUnits="userSpaceOnUse">
      <stop stop-color="#D46E1A" offset="0"/>
      <stop stop-color="#D07217" offset="1"/>
    </linearGradient>
    <linearGradient id="paint3_linear_131_105" x1="146.2" x2="146.2" y1="119" y2="135.5" gradientUnits="userSpaceOnUse">
      <stop stop-color="#D46E1A" offset="0"/>
      <stop stop-color="#D07217" offset="1"/>
    </linearGradient>
    <linearGradient id="paint4_linear_131_105" x1="162" x2="162" y1="119.3" y2="135.4" gradientUnits="userSpaceOnUse">
      <stop stop-color="#D46E1A" offset="0"/>
      <stop stop-color="#D07217" offset="1"/>
    </linearGradient>
    <linearGradient id="paint5_linear_131_105" x1="178.3" x2="178.3" y1="119.4" y2="135.4" gradientUnits="userSpaceOnUse">
      <stop stop-color="#D46E1A" offset="0"/>
      <stop stop-color="#D07217" offset="1"/>
    </linearGradient>
    <linearGradient id="paint6_linear_131_105" x1="200.1" x2="200.1" y1="119.3" y2="135" gradientUnits="userSpaceOnUse">
      <stop stop-color="#D46E1A" offset="0"/>
      <stop stop-color="#D07217" offset="1"/>
    </linearGradient>
    <linearGradient id="paint7_linear_131_105" x1="220.8" x2="220.8" y1="119.2" y2="135.5" gradientUnits="userSpaceOnUse">
      <stop stop-color="#D46E1A" offset="0"/>
      <stop stop-color="#D07217" offset="1"/>
    </linearGradient>
    <linearGradient id="paint8_linear_131_105" x1="236.2" x2="236.2" y1="119" y2="135.2" gradientUnits="userSpaceOnUse">
      <stop stop-color="#D46E1A" offset="0"/>
      <stop stop-color="#D07217" offset="1"/>
    </linearGradient>
  </defs>
</svg>