<svg xmlns="http://www.w3.org/2000/svg" width="250" height="250" viewBox="0 0 250 250">
<!-- SVG created with Arrow, by QuiverAI (https://quiver.ai) -->
  <path d="m87.31 135.7v-20.89h7.8c3.21 0 8 0.78 8 5.31v0.4c0 2.02-1.04 3.32-2.66 4.15 1.98 0.83 3.24 2.31 3.24 4.63v0.4c0 4.68-4.33 6-7.4 6h-8.98zm8.26-17.13h-3.68v4.76h3.91c1.48 0 2.86-0.69 2.86-2.26v-0.4c0-1.52-1.4-2.1-3.09-2.1zm0.62 8.03h-4.3v5.47h4.43c1.65 0 2.9-1.03 2.9-2.5v-0.4c0-1.48-1.21-2.57-3.03-2.57z" fill="#3A3A3A"/>
  <path d="m115.8 135.7-3.29-5.71h-2.05v5.71h-4.36v-15.68h4.36v6.45h1.75l4.06-6.45h4.51l-4.51 7.33 5.41 8.35h-5.88z" fill="#3A3A3A"/>
  <path d="m123.5 138.2c1.28 0 2.01-0.57 2.73-3.02l-4.99-15.19h4.53l3.17 9.91 2.94-9.91h4.46l-5.58 16.5c-1.44 4.3-2.99 5.7-5.77 5.7h-2.19v-3.99h0.7z" fill="#3A3A3A"/>
  <path d="m144.7 132.2c1.99 0 2.67-1.25 2.72-2.75h3.99c-0.05 3.6-2.14 6.6-6.74 6.6-5.11 0-7.51-3.33-7.51-8.14v-0.2c0-4.66 2.4-7.99 7.34-7.99 4.79 0 6.86 3 6.91 6.6h-3.99c-0.05-1.5-0.73-2.75-2.72-2.75-2.34 0-3.18 1.85-3.18 4.29v0.1c0 2.56 0.84 4.24 3.18 4.24z" fill="#3A3A3A"/>
  <path d="m163.7 135.7v-6.08h-5.17v6.08h-4.52v-15.68h4.52v6.17h5.17v-6.17h4.53v15.68h-4.53z" fill="#3A3A3A"/>
  <path d="m179.9 135.7v-5.47h-2.92l-3.14 5.47h-4.53l3.77-6.28c-2.06-0.83-3.31-2.4-3.31-4.7v-0.15c0-3.04 2.25-4.55 5.92-4.55h8.62v15.68h-4.41zm-3.3-12.37c-1.45 0-2.33 0.49-2.33 1.69v0.15c0 1.2 0.88 1.88 2.33 1.88h3.3v-3.72h-3.3z" fill="#3A3A3A"/>
  <path d="m187.7 135.7v-15.68h4.53v12.4h4.69v-12.4h4.28v12.4h4.39v-12.4h4.23v15.68h-22.12z" fill="#3A3A3A"/>
  <path d="m223.3 135.7-3.6-5.71h-1.58v5.71h-4.69v-15.68h4.69v6.45h1.3l4.35-6.45h4.51l-5.01 7.6 5.91 8.08h-5.88z" fill="#3A3A3A"/>
  <path d="m239.8 135.7-0.23-1.28c-0.93 1.06-2.33 1.6-4.15 1.6-3.1 0-5.32-1.75-5.32-4.8v-0.25c0-3.3 2.72-4.5 5.94-4.5h3.3v-0.85c0-1.4-0.75-2.33-2.42-2.33-1.53 0-2.31 0.78-2.41 1.93h-3.99c0.33-3.1 2.73-5.4 6.58-5.4 3.84 0 6.44 1.85 6.44 5.7v7.23l0.35 2.95h-4.09zm-2.83-2.95c1.47 0 2.37-1.05 2.37-2.53v-1.3h-2.4c-1.6 0-2.43 0.7-2.43 1.85v0.15c0 1.15 0.88 1.83 2.46 1.83z" fill="#3A3A3A"/>
  <path d="m74.28 107c-3.65-8.04-10.97-11.63-17.22-11.63h-1.08c-7.17 0-11.3 4.04-15.17 8.03-3.87-4.19-8.14-7.74-15.17-7.74h-1.37c-9.12 0-18.27 8.22-18.75 18.57v1.81c0 6.02 2.59 11.63 7.32 16.37l19.34 18.5c2.93 2.8 5.4 2.99 7.95 2.99 3.58 0 5.74-1.63 8.81-5.02l19.41-19.01c5.71-5.23 9.53-13.98 5.93-22.87zm-28.17 40.31-1.82 1.82c-2.57 2.28-5.58 1.48-7.51-0.46l-3.06-2.9c-1.3-1.3-1.1-2.5-0.27-3.67l3.36-4.54-1.73-3-5.77 5.01c-1.49 1.03-2.59 0.3-3.6-0.83l-9.63-10.6c-3.96-3.96-6.07-8.01-6.07-13.04 0-8.99 7.82-15.56 15.08-15.56h0.92c5.85 0 10.24 3.82 13.47 8.35 0.93 1.03 2.23 0.9 3.03-0.13 4.6-5.4 8-8.5 14.25-8.5h0.7c7.46 0 14.46 7.1 14.46 15.72 0 5.4-2.87 10.13-6.73 13.73l-9.48 9.35c-1.89 1.68-3.59 1.58-5.54-0.27l-13.76-11.56c-1.4-1.3-1.07-3.12-1.07-4.67 0-5.78-7.13-11.57-12.78-11.57-3.73 0-5.43 2.42-5.43 6.12 0 5.55 5.03 10.95 10.75 10.65 2.19-0.1 3.19 0.3 4.84 1.98l13.99 13.98c1.72 1.75 1.25 3.05-0.6 4.59zm1.6-20.15c-1.6 0-2.5 1.85-3.6 2.68l-2.03-2.03 2.03-2.03c1.23-1.22 1.1-2.37 1.1-4.32 0-1.85 0.6-3.25 1.9-4.55l9.8-8.32c0.8-0.73 1.7 0.07 1 0.97l-7.8 8.3c-0.83 0.95 0.5 2.15 1.5 1.25l8.5-8.5c1-1 2.13 0.13 1.2 1.05l-7.4 8.65c-1 1.13 0.47 2.25 1.5 1.15l7.2-7.2c1.07-1.07 1.9 0.23 1.1 1.28-3 3.7-7.87 11.62-11.6 11.62h-4.4z" fill="#F3A049"/>
</svg>