<svg width="23" height="13" viewBox="0 0 23 13" fill="none" xmlns="http://www.w3.org/2000/svg">
<path d="M15.9617 1.81297C14.0074 -0.141288 11.0736 -0.514237 8.74636 0.689146C10.0044 1.10188 11.183 1.80799 12.1825 2.8075L14.3704 4.99547C14.5892 5.21426 14.5892 5.57229 14.3704 5.79109C14.1516 6.00989 13.7936 6.00989 13.5748 5.79109L13.177 5.39328L11.3868 3.60312C10.9741 3.19039 10.5266 2.83733 10.0542 2.53897C9.26352 2.04171 8.40325 1.70357 7.51563 1.52704C5.10886 1.04469 2.51313 1.73589 0.645901 3.60312L0.248088 4.00094C-0.0825937 4.33162 -0.0825937 4.86369 0.248088 5.19437C0.57877 5.52505 1.11084 5.52505 1.44153 5.19437L1.83934 4.79656C3.05018 3.58572 4.65386 3.01138 6.24014 3.07105C4.85525 5.44052 5.17848 8.53351 7.20981 10.5648L7.23467 10.5897C10.5365 13.8567 16.4316 13.2774 20.4222 9.28687C21.4813 8.22769 22.3018 7.03426 22.8712 5.78861C22.9781 5.5524 22.7195 5.30874 22.4709 5.38333C21.1283 5.79109 19.6091 5.46041 18.5475 4.39875L15.9617 1.81297Z" fill="#F7A348"/>
</svg>
