<?xml version="1.0" encoding="utf-8"?>
<svg xmlns="http://www.w3.org/2000/svg" viewBox="3.4958 2.3 53.2265 44.9768" width="53.2265px" height="44.9768px"><path d="m56.37 13.56c-1.6-7.45-7.62-11.26-13.76-11.26-5.65 0-9.46 2.81-12.5 7.21-3.04-4.4-6.85-7.21-12.5-7.21-6.14 0-12.16 3.81-13.76 11.26-1.34 6.53 1.27 11.71 5.34 15.78l7.63 7.46c1.44 1.41 2.99 0.89 4-0.12l4.96-4.96 2.18 2.18-4.28 5.43c-0.96 1.34-0.49 2.86 0.66 3.89l3.43 2.99c1.65 1.42 3.34 1.49 5.26-0.2l2.99-2.74c1.2-1.2 1.15-2.74-0.29-4.21l-10.52-11.23c-1.08-1.2-1.68-1.77-3.35-1.77-4.68 0-8.22-3.15-9.85-7.36-1.32-3.59-0.95-7.03 2.91-7.45 4.17-0.47 10.31 3.96 10.65 7.91 0.22 1.79-0.25 2.8 0.05 4.27 0.19 1.01 0.69 1.73 1.49 2.42l11.9 10.64c1.74 1.6 3.55 1.18 4.8-0.14l7.17-7.43c4.1-4.07 6.73-8.83 5.39-15.36zm-6.75 2.35-6.86 8.65c-1.42 1.79-3.45 1.52-4.55 1.35-1.1-0.16-2.13 0.26-2.98 1.16l-1.25 1.37-2-1.83 1.47-1.37c0.9-0.9 0.97-1.83 0.8-3.33-0.27-1.69 0.22-3.26 1.47-4.55l8.7-7.18c0.69-0.64 1.16-0.37 1.35-0.07 0.24 0.34 0.05 0.88-0.36 1.3l-6.77 6.77 0.74 0.74 7.13-6.67c0.7-0.69 1.19-0.55 1.43-0.26 0.34 0.37 0.22 0.96-0.38 1.63l-6.58 7.09 0.8 0.8 6.86-6.86c0.47-0.47 1.07-0.74 1.43-0.38 0.34 0.34 0.27 0.84-0.45 1.64z" fill="#F39D45" id="object-0" transform="matrix(1, 0, 0, 1, -1.7763568394002505e-15, 0)"/></svg>