<svg xmlns="http://www.w3.org/2000/svg" viewBox="0 0 250.00 250.00" data-guides="{&quot;vertical&quot;:[],&quot;horizontal&quot;:[]}"><defs/><path fill="#FEF6ED" stroke="#5C3D2E" fill-opacity="1" stroke-width="1.2" stroke-opacity="1" stroke-linecap="round" stroke-miterlimit="10" d="M113.9 165.6C114.98 165.6 115.62 164.75 115.48 163.75C115.33 162.71 114.53 162.22 113.66 162.36C112.58 162.58 111.98 163.33 112.04 164.26C112.08 165.12 112.83 165.6 113.9 165.6Z"/><path fill="none" stroke="#5C3D2E" fill-opacity="1" stroke-width="1.2" stroke-opacity="1" stroke-linecap="round" stroke-miterlimit="10" d="M85.06 152.8C87.91 150.05 90.01 150.77 91.42 152.8C93.84 156.25 93.64 160.17 93.24 164.2"/><path fill="#C9783A" stroke="none" fill-opacity="1" stroke-width="1" stroke-opacity="1" d="M8.39 230.2C7.63 230.9433 6.87 231.6867 6.11 232.43C6.11 233.3333 6.11 234.2367 6.11 235.14C6.58 235.5 7.05 235.86 7.52 236.22C41.2533 235.9567 74.9867 235.6933 108.72 235.43C110.82 236.6933 112.92 237.9567 115.02 239.22C118.2533 239.58 121.4867 239.94 124.72 240.3C127.8567 239.7567 130.9933 239.2133 134.13 238.67C136.51 237.4933 138.89 236.3167 141.27 235.14C174.87 235.3333 208.47 235.5267 242.07 235.72C242.7 235.12 243.33 234.52 243.96 233.92C243.96 232.87 243.96 231.82 243.96 230.77C243.0233 229.82 242.0867 228.87 241.15 227.92C240.4067 228.1133 239.6633 228.3067 238.92 228.5C205.7067 228.5 172.4933 228.5 139.28 228.5C137.3767 230.39 135.4733 232.28 133.57 234.17C131.3867 234.4933 129.2033 234.8167 127.02 235.14C125.0833 235.14 123.1467 235.14 121.21 235.14C118.5533 234.2367 115.8967 233.3333 113.24 232.43C112.21 231.4933 111.18 230.5567 110.15 229.62C76.2167 229.8133 42.2833 230.0067 8.39 230.2Z"/><path fill="none" stroke="#9B4924" fill-opacity="1" stroke-width="2" stroke-opacity="1" stroke-linecap="round" stroke-miterlimit="10" d="M7.68 178.1C85.98 178.2067 164.28 178.3133 242.58 178.42"/><path fill="#F7A348" stroke="#5C3D2E" fill-opacity="1" stroke-width="2" stroke-opacity="1" stroke-linecap="round" stroke-miterlimit="10" d="M9.12 225.5C18.4367 209.1633 27.7533 192.8267 37.07 176.49C37.71 175.34 38.93 174.63 40.27 174.59C41.25 174.5533 42.23 174.5167 43.21 174.48C44.0467 172.97 44.8833 171.46 45.72 169.95C57.26 169.71 63.09 169.28 74.18 167.23C90.96 169.1633 107.74 171.0967 124.52 173.03C140.9733 171.6267 157.4267 170.2233 173.88 168.82C182.43 169.8 188.48 169.84 195.64 169.76C198.6567 169.7233 201.6733 169.6867 204.69 169.65C205.7833 171.5267 206.8767 173.4033 207.97 175.28C208.6667 175.28 209.3633 175.28 210.06 175.28C211.62 175.28 213.07 176.14 213.81 177.59C222.9767 193.61 232.1433 209.63 241.31 225.65C242.72 228.38 241.21 230.87 238.76 230.58C205.45 229.6533 172.14 228.7267 138.83 227.8C136.46 232 132.91 233.61 124.07 233.61C115.24 233.61 113.12 231.83 110.42 228.08C77.2467 228.9133 44.0733 229.7467 10.9 230.58C8.39 230.78 7.19 228.09 9.12 225.5Z"/><path fill="#FEF6ED" stroke="#5C3D2E" fill-opacity="1" stroke-width="2" stroke-opacity="1" stroke-linecap="round" stroke-miterlimit="10" d="M14.12 225.9C24.7167 207.3667 35.3133 188.8333 45.91 170.3C55.04 170.02 64.71 168.97 74.89 166.83C95.4233 160.57 108.9567 167.31 124.49 172.05C144.0333 160.9633 157.5767 169.8767 174.12 168.79C182.87 170.02 191.95 170.3 203.98 170.3C214.58 188.8333 225.18 207.3667 235.78 225.9C203.3933 225.5733 171.0067 225.2467 138.62 224.92C136.01 228.71 132.81 230.18 124.18 230.18C115.55 230.18 114.32 228.71 111.41 225.41C78.98 225.5733 46.55 225.7367 14.12 225.9Z"/><path fill="#9B4924" stroke="none" fill-opacity="1" stroke-width="1" stroke-opacity="1" d="M123.9 222.9C134.56 207.09 147.39 203.11 164.15 203.59C176.81 203.98 191.9 210.99 208.92 212.47C214.74 212.97 220.4 213.29 227.93 212.04C228.6067 213.3567 229.2833 214.6733 229.96 215.99C224.1 216.76 213.69 216.32 203.05 213.93C214.29 217.79 222.54 218 231.7 217.65C232.38 218.7467 233.06 219.8433 233.74 220.94C223.57 221.86 215.08 220.03 205.9 218.07C215.71 221.26 221.7 221.73 234.61 221.54C234.9667 222.5233 235.3233 223.5067 235.68 224.49C203.2 224.0567 170.72 223.6233 138.24 223.19C134.22 226.39 132.55 227.8 124.71 227.69C117.81 227.59 116.04 226.24 113.31 223.75C81.1967 224.0967 49.0833 224.4433 16.97 224.79C17.53 223.69 18.09 222.59 18.65 221.49C24.85 221.62 35.44 221.75 44.87 219.71C37.11 219.99 27.77 220.05 20.98 219.36C21.5433 218.21 22.1067 217.06 22.67 215.91C30.1 216.36 39.47 216.06 46.72 213.93C37.27 215.07 30.71 215.55 24.27 214.51C24.74 213.41 25.21 212.31 25.68 211.21C33.35 211.94 39.84 211.05 47.41 209.34C58.08 206.77 69.8 203.11 84.02 203.11C101.1 203.11 114.7 208.17 123.9 220.9C123.9 221.5667 123.9 222.2333 123.9 222.9ZM88.5 150.5L93.5 165"/><path fill="none" stroke="#5C3D2E" fill-opacity="1" stroke-width="1.2" stroke-opacity="1" stroke-linecap="round" stroke-miterlimit="10" d="M124.6 222.6C132.17 210.03 143.11 203.58 161.94 203.58C177.9 203.58 190.67 210.76 209.2 212.4C216.25 213.02 220.77 213.6 227.5 212.03"/><path fill="none" stroke="#5C3D2E" fill-opacity="1" stroke-width="0.7" stroke-opacity="1" stroke-linecap="round" stroke-miterlimit="10" d="M124.7 222.3C131.99 210.81 143.21 207.97 155.13 207.46C164.42 207.05 172.09 209.14 188.77 212.62"/><path fill="none" stroke="#5C3D2E" fill-opacity="1" stroke-width="0.7" stroke-opacity="1" stroke-linecap="round" stroke-miterlimit="10" d="M125.1 222.3C132.95 212.95 143.38 210.3 153 210.74C158.21 210.99 160.56 211.52 162.35 211.87"/><path fill="none" stroke="#5C3D2E" fill-opacity="1" stroke-width="0.7" stroke-opacity="1" stroke-linecap="round" stroke-miterlimit="10" d="M125.6 222.6C132.78 214.38 139.82 211.88 152.65 211.88"/><path fill="none" stroke="#5C3D2E" fill-opacity="1" stroke-width="1.2" stroke-opacity="1" stroke-linecap="round" stroke-miterlimit="10" d="M124.2 222.6C116.64 210.03 105.7 203.58 86.87 203.58C60.91 202.58 57.03 209.36 38.5 211C33.02 211.49 29.02 211.96 23 211"/><path fill="none" stroke="#5C3D2E" fill-opacity="1" stroke-width="0.7" stroke-opacity="1" stroke-linecap="round" stroke-miterlimit="10" d="M123.7 222.3C115.49 210.98 104.19 209.02 94.99 208.19C86.99 207.45 82.69 208.53 70.46 210.57C67.32 211.19 64.89 211.85 61.16 212.62"/><path fill="none" stroke="#5C3D2E" fill-opacity="1" stroke-width="0.7" stroke-opacity="1" stroke-linecap="round" stroke-miterlimit="10" d="M123.4 222.3C114.84 212.62 104.17 210.17 92.78 210.17C88.81 210.17 86.71 210.37 84.05 210.75"/><path fill="none" stroke="#5C3D2E" fill-opacity="1" stroke-width="0.7" stroke-opacity="1" stroke-linecap="round" stroke-miterlimit="10" d="M122.8 222.6C115.62 214.38 107.28 212.48 97.67 211.88"/><path fill="#C7B2A8" stroke="#5C3D2E" fill-opacity="1" stroke-width="1.2" stroke-opacity="1" stroke-linecap="round" stroke-miterlimit="10" d="M124.2 222.6C118.98 222.6 115.94 224.18 115.94 226.48C115.94 228.03 120.09 228.69 124.75 228.69C129.04 228.69 133.56 227.94 133.56 226.48C133.56 224.48 130.07 222.6 124.2 222.6Z"/><path fill="none" stroke="#9B4924" fill-opacity="1" stroke-width="2" stroke-opacity="1" stroke-linecap="round" stroke-miterlimit="10" d="M124.7 222C124.7 206.8067 124.7 191.6133 124.7 176.42"/><path fill="#C9783A" stroke="none" fill-opacity="1" stroke-width="1" stroke-opacity="1" d="M222.1 93.41C216.78 94.47 213.23 98.88 214.32 103.7C214.91 106.51 217.81 108.48 216.11 113.23C214.74 117.42 209.99 117.93 205.01 117.93C196.51 117.93 190.08 124.38 190.94 132.7C193.2 127.31 197.65 123.71 203.23 123.71C206.13 123.71 207.21 124.81 210.48 124.23C218.78 122.69 224.53 116.98 224.24 112.81C223.71 105.02 217.08 103.95 216.59 99.92C216.23 96.99 217.96 95.11 222.1 93.41Z"/><path fill="#C9783A" stroke="none" fill-opacity="1" stroke-width="1" stroke-opacity="1" d="M184.9 108.8C181.3 109.65 178.07 111.93 178.4 116.06C178.7 119.92 182.97 120.99 182.43 122.87C181.81 125.02 178.97 125.21 178.97 130.07C182.7 127.79 184.9 124.82 185.3 122.07C185.92 118.08 181.21 115.57 181.76 112.63C182.12 110.67 183.7 109.65 184.9 108.8Z"/><path fill="#C9783A" stroke="none" fill-opacity="1" stroke-width="1" stroke-opacity="1" d="M211.5 131.3C209.29 134.81 207.43 134.18 205.64 133.26C202.73 131.79 199.13 134.94 198.17 139.65C200.49 136.26 202.73 136.19 204.42 137.08C207.91 138.93 212.27 136.81 211.5 131.3Z"/><path fill="#F5A146" stroke="#5C3D2E" fill-opacity="1" stroke-width="2" stroke-opacity="1" stroke-linecap="round" stroke-miterlimit="10" d="M200.2 25.24C185.97 24.14 176.17 34.78 175.59 42.91C175.2 48.34 178.67 50.01 182.41 49.7C187.76 49.26 187.88 41.04 194.07 38.97C199.98 36.97 206.08 39.46 206.94 44.65C207.86 50.21 203.79 53.94 197.06 57.56C189.55 61.62 186.23 68.73 186.85 72.9C187.38 76.48 190.93 77.62 193.68 77.29C198.59 76.71 198.04 70.95 202.18 68.13C206.46 65.26 212.26 64.06 218 56.6C224.15 48.55 222.73 32.61 203.79 26.05C202.61 25.73 201.38 25.43 200.2 25.24Z"/><path fill="#F5A146" stroke="#5C3D2E" fill-opacity="1" stroke-width="2" stroke-opacity="1" stroke-linecap="round" stroke-miterlimit="10" d="M192 95.9C197.4 93.86 197.49 87.76 194.84 84.82C191.83 81.46 185.72 81.96 183.43 85.82C180.21 91.26 183.43 96.58 188.99 96.72C190.01 96.75 190.98 96.51 192 95.9Z"/><path fill="none" stroke="#FEF6ED" fill-opacity="1" stroke-width="3" stroke-opacity="1" stroke-linecap="round" stroke-miterlimit="10" d="M181.9 37.11C184.41 32.91 188.13 30.76 192.03 30.06"/><path fill="#F2C158" stroke="none" fill-opacity="1" stroke-width="1" stroke-opacity="1" d="M31.81 136.6C32.6467 138.91 33.4833 141.22 34.32 143.53C36.2933 144.3233 38.2667 145.1167 40.24 145.91C38.19 146.6433 36.14 147.3767 34.09 148.11C33.0433 150.4533 31.9967 152.7967 30.95 155.14C30.27 152.61 29.59 150.08 28.91 147.55C26.5133 146.85 24.1167 146.15 21.72 145.45C24.1167 144.5967 26.5133 143.7433 28.91 142.89C29.8767 140.7933 30.8433 138.6967 31.81 136.6Z"/><path fill="#F2C158" stroke="none" fill-opacity="1" stroke-width="1" stroke-opacity="1" d="M39.21 82.53C39.4633 81.15 39.7167 79.77 39.97 78.39C40.65 79.8967 41.33 81.4033 42.01 82.91C43.2533 83.37 44.4967 83.83 45.74 84.29C44.42 84.8033 43.1 85.3167 41.78 85.83C41.0267 87.2267 40.2733 88.6233 39.52 90.02C39.2333 88.46 38.9467 86.9 38.66 85.34C37.09 84.88 35.52 84.42 33.95 83.96C35.7033 83.4833 37.4567 83.0067 39.21 82.53Z"/><path fill="#F2C158" stroke="none" fill-opacity="1" stroke-width="1" stroke-opacity="1" d="M217 146.7C217.7167 148.53 218.4333 150.36 219.15 152.19C220.9367 152.75 222.7233 153.31 224.51 153.87C222.82 154.63 221.13 155.39 219.44 156.15C218.81 157.8367 218.18 159.5233 217.55 161.21C216.92 159.3233 216.29 157.4367 215.66 155.55C213.79 155.0567 211.92 154.5633 210.05 154.07C212.0633 153.2667 214.0767 152.4633 216.09 151.66C216.3933 150.0067 216.6967 148.3533 217 146.7Z"/><path fill="#111827" stroke="none" fill-opacity="1" stroke-width="1" stroke-opacity="1" d="M20.82 126.1C20.45 128.36 21.97 129.23 22.81 128.96C24.22 128.81 25.19 127.49 24.89 126.01C24.53 124.38 22.81 123.77 21.61 124.51C21.07 124.86 20.82 125.41 20.82 126.1Z"/><path fill="#111827" stroke="none" fill-opacity="1" stroke-width="1" stroke-opacity="1" d="M43.07 157C42.71 158.7 43.94 159.5 44.91 159.35C46.22 159.15 47.01 158.18 46.79 156.71C46.54 155.17 45.19 154.87 44.22 155.23C43.46 155.53 43.11 156.2 43.07 157Z"/><path fill="#111827" stroke="none" fill-opacity="1" stroke-width="1" stroke-opacity="1" d="M201.7 107.7C201.34 109.7 202.8 110.62 203.82 110.39C205.4 110.04 206.26 108.72 205.91 107.08C205.5 105.29 203.71 105.02 202.58 105.72C201.88 106.17 201.63 106.89 201.7 107.7Z"/><path fill="#C9783A" stroke="none" fill-opacity="1" stroke-width="1" stroke-opacity="1" d="M141.9 174.7C140.22 176.11 143.12 177.25 147.14 177.83C157.07 179.24 170.12 179.02 181.94 177.25C189.45 176.11 189.69 174.97 186.84 173.56C183.29 171.79 177.31 170.93 170.22 170.58C159.45 170 146.34 171.2 141.9 174.7Z"/><path fill="#FEF6ED" stroke="#5C3D2E" fill-opacity="1" stroke-width="2" stroke-opacity="1" stroke-linecap="round" stroke-miterlimit="10" d="M165 115.1C160.12 107.14 161.19 105.19 163.29 95.83C166.13 83.47 159.43 70.25 149.91 62.79C149.0267 58.99 148.1433 55.19 147.26 51.39C155.08 47.71 159 40.95 156.14 34.4C154.94 31.34 152.67 29.06 150.89 27.99C149.75 21.09 143.67 14.49 133.98 15.34C128.93 15.82 126.49 16.74 124.82 17.76C118.23 11.99 112.62 10.35 103.39 10.59C92.15 10.88 80.43 17.76 74.92 29.7C64.25 29.12 52.13 37.02 51.58 49.68C51.47 52.06 51.72 53.84 52.02 55.1C47.77 59.89 47.2 67.18 51.12 72C55.64 77.56 62.23 77.76 65.82 76.78C66.9133 76.8967 68.0067 77.0133 69.1 77.13C69.31 80.3833 69.52 83.6367 69.73 86.89C67.59 94.11 68.08 99.87 69.26 107.44C70.23 113.87 65.57 120.24 65.87 127.04C66.27 136.05 72.77 142.89 81.53 143.24C84.67 143.37 86 142.14 87.02 141.17C89.4 143.51 93.42 144.99 96.64 144.01C95.3767 146.1967 94.1133 148.3833 92.85 150.57C95.6333 155.4 98.4167 160.23 101.2 165.06C108.4733 165.6867 115.7467 166.3133 123.02 166.94C128.0533 159.04 133.0867 151.14 138.12 143.24C143.82 142.39 157.8 139.19 163.16 133.24C167.82 128.15 167.7 119.71 165 115.1Z"/><path fill="#FEF6ED" stroke="none" fill-opacity="1" stroke-width="1" stroke-opacity="1" d="M54.32 44.11C53.24 50.81 55.95 54.38 60.03 55.92C68.07 58.92 77.87 56.21 82.79 47.52C83.81 45.56 83.81 42.91 84.25 40.14C87.75 42.76 89.47 44.4 95.39 44.4C106.63 44.4 117.72 41.46 123.57 31.1C123.81 34.04 123.92 36.63 125.23 37.65C130.44 41.67 144.02 39.76 147.75 35.22C148.92 33.76 149.73 31.27 149.73 29.46C150.14 30.0067 150.55 30.5533 150.96 31.1C151.21 36.97 148.21 43.19 143.41 46.61C144.41 47.64 145.41 48.67 146.41 49.7C146.8167 50.2467 147.2233 50.7933 147.63 51.34C151.13 49.87 157.91 43.79 156.45 36.83C155.48 32.36 152.49 29.21 150.61 27.8C149.74 22.51 144.71 15.29 134.63 15.54C129.68 15.67 126.72 16.83 124.99 18.24C118.06 11.47 110.61 10.41 103.92 10.61C93.01 10.97 82.01 17.78 75.71 29.72C67.11 29.72 60.17 32.81 55.51 40.13C54.71 41.46 54.32 43.05 54.32 44.11Z"/><path fill="#E8DBD1" stroke="none" fill-opacity="1" stroke-width="1" stroke-opacity="1" d="M149.9 28.01C149.9 33.64 148.11 37.26 142.75 39.4C137.71 41.46 130.72 40.13 127.44 38.36C125.3 37.26 124.91 35.12 124.72 31.64C124.1967 31.37 123.6733 31.1 123.15 30.83C122.86 36.19 122.51 38.97 120.83 43.79C121.19 44.26 121.55 44.73 121.91 45.2C122.61 45.2733 123.31 45.3467 124.01 45.42C129.71 45.42 137.93 46.27 143.52 48.76C147.75 46.55 151.02 41.04 150.99 35.34C150.96 32.91 150.88 30.76 149.9 28.01Z"/><path fill="#E8DBD1" stroke="none" fill-opacity="1" stroke-width="1" stroke-opacity="1" d="M83.81 42.63C84.72 47.04 87.01 49.53 92.09 52.15C92.6833 51.75 93.2767 51.35 93.87 50.95C89.8 48.7 86.69 45.93 85.28 42.01C84.79 42.2167 84.3 42.4233 83.81 42.63Z"/><path fill="#E8DBD1" stroke="none" fill-opacity="1" stroke-width="1" stroke-opacity="1" d="M59.55 62.81C62.56 65.46 66.57 66.66 70.01 66.21C70.0433 65.7767 70.0767 65.3433 70.11 64.91C65.67 65.05 62.71 63.76 59.55 61.34C59.55 61.83 59.55 62.32 59.55 62.81Z"/><path fill="#FEF6ED" stroke="#5C3D2E" fill-opacity="1" stroke-width="1.2" stroke-opacity="1" stroke-linecap="round" stroke-miterlimit="10" d="M146.3 48.91C137.81 45.26 127.74 44.65 121.4 45.26C106.41 46.74 96.22 49.87 82.41 59.06C77.92 62.11 72.81 66.06 67.87 71.61C68.7367 76.4967 69.6033 81.3833 70.47 86.27C77.41 76.06 87.74 70.06 102.1 64.69C113.92 60.14 127.68 59.01 139.65 60.34C144.59 60.91 148.37 62.06 150.05 63.29C148.8 58.4967 147.55 53.7033 146.3 48.91Z"/><path fill="#E8DBD1" stroke="none" fill-opacity="1" stroke-width="1" stroke-opacity="1" d="M80 61.5C80 61.5 82.0903 69.3867 85 71.8896C78.8394 75.9373 74.6031 80.4121 70.4425 85.4598C70.603 80.8809 69.3238 76.4685 68.4844 71.8896C73.5847 66.0501 80 61.5 80 61.5Z"/><path fill="#FFD978" stroke="#9B4924" fill-opacity="1" stroke-width="1.2" stroke-opacity="1" stroke-linecap="round" stroke-miterlimit="10" d="M70.51 87.76C77.71 77.01 89.91 70.01 105.61 64.34C117.21 59.97 133.01 58.92 143.09 60.56C153.22 62.27 163.15 74.63 163.44 87.9C163.63 95.92 160.13 103.01 160.62 107.93C161.11 112.92 164.56 116.91 166.03 120.14C167.24 125.13 163.86 132.54 156.5 136.5C143.26 140.81 145.2 142.1 137.5 138.31C136.1067 137.8767 134.9233 138.0533 133.53 137.62C132.2867 137.85 131.0433 138.08 129.8 138.31C125.28 139.07 119.58 140.08 112.5 138.92C103.74 137.44 100.16 147.81 87 140C85.35 138.94 84.06 146.92 72.5 138.92C69.54 136.26 67.67 132.19 67 126C67.47 120.42 68.28 117.2 70.51 112.5C71.0467 108.7167 70.99 106.99 70 104.5C68.64 97.53 69.09 93.08 70.51 87.76ZM112.5 138.92C112.5 138.92 107.5 138.92 107.5 138.92"/><path fill="#ffe3cc" stroke="#9b4923" fill-opacity="1" stroke-width="1.2" stroke-opacity="1" stroke-linecap="round" stroke-miterlimit="10" d="M111 137.5C111.96 140.7 114.08 144.51 121.5 144.5C129.56 143.82 131.47 137.7 130 136.5C122.34 137.5 112.66 137.5 111 137.5Z"/><path fill="#E5A85B" stroke="none" fill-opacity="1" stroke-width="1" stroke-opacity="1" d="M71.94 125.9C71.94 130.09 73.46 134.43 76.73 136.6C74.35 132.4 74.46 131.11 74.7 129.09C76.27 133.64 80.06 138.63 84.84 139.59C80.91 142.15 70.34 137.91 69.63 130.63C69.45 128.67 70.37 126.74 71.94 125.9Z"/><path fill="#E5A85B" stroke="none" fill-opacity="1" stroke-width="1" stroke-opacity="1" d="M160.1 90.02C159.56 80.67 155.42 72.97 150.06 68.73C156.45 77.01 158.14 85.34 156.91 98.21C156.37 104.46 155.78 107.69 157.94 112.61C159.78 117.11 160.39 123.13 158.65 129.83C162.24 126.07 163.97 122.83 162.74 117.42C161.72 112.81 157.94 108.61 158.14 104.11C158.31 100.12 160.39 95.11 160.1 90.02Z"/><path fill="#FFE3CC" stroke="#9B4924" fill-opacity="1" stroke-width="1.2" stroke-opacity="1" stroke-linecap="round" stroke-miterlimit="10" d="M154.2 98.14C145.8 90.61 138.61 82.42 137.38 70.27C133.95 83.69 127.1 92.94 117.02 97.73C120.87 92.03 122.05 87.04 122.54 80.12C113.92 93.41 101.7 103.16 87 106.03C86.7467 107.3633 86.4933 108.6967 86.24 110.03C83.91 107.69 77.75 107.01 75.7 111.9C73.32 117.89 77.05 125.11 84.24 125.11C86.35 125.11 87.71 124.49 88.47 123.71C93.83 132.56 102.18 138.31 115.29 138.31C131.4 138.31 144.36 133.63 151.01 123.12C154.74 117.36 152.9 112.17 152.8 106.1C152.74 102.87 153.45 100.81 154.2 98.14Z"/><path fill="none" stroke="#9B4924" fill-opacity="1" stroke-width="1.2" stroke-opacity="1" stroke-linecap="round" stroke-miterlimit="10" d="M123.7 117.9C125.01 116.49 126.14 116.21 127.42 117.58C127.2933 118.1933 127.1667 118.8067 127.04 119.42"/><path fill="none" stroke="#9B4924" fill-opacity="1" stroke-width="2" stroke-opacity="1" stroke-linecap="round" stroke-miterlimit="10" d="M112 101.1C109.05 105.72 106.25 106.04 101.41 106.04"/><path fill="none" stroke="#9B4924" fill-opacity="1" stroke-width="2" stroke-opacity="1" stroke-linecap="round" stroke-miterlimit="10" d="M137.4 98.43C140.05 100.71 142.03 101.09 146.18 100.71"/><path fill="#5C3D2E" stroke="none" fill-opacity="1" stroke-width="1" stroke-opacity="1" d="M102.67 115.1C102.23 111.65 104.8 110.02 107.21 110.02C110.43 110.02 112.37 112.8 112.2 115.74C111.9 120 109.7 120.96 107.71 120.96C104.71 120.96 103.67 119.1 102.67 115.1"/><path fill="#5C3D2E" stroke="none" fill-opacity="1" stroke-width="1" stroke-opacity="1" d="M136.4 112.2C136.1 108.01 138.75 106.96 140.54 106.96C144.78 106.96 146.01 109.01 145.87 112.27C145.67 116.19 143.73 117.88 141.08 117.67C138.17 117.48 136.6 115.56 136.4 112.2Z"/><path fill="none" stroke="#5C3D2E" fill-opacity="1" stroke-width="2" stroke-opacity="1" stroke-linecap="round" stroke-miterlimit="10" d="M141.6 107.9C142.96 107.4267 144.32 106.9533 145.68 106.48"/><path fill="none" stroke="#5C3D2E" fill-opacity="1" stroke-width="2" stroke-opacity="1" stroke-linecap="round" stroke-miterlimit="10" d="M101 110.5C102.71 110.93 103.29 111.07 105 111.5"/><path fill="none" stroke="#9B4924" fill-opacity="1" stroke-width="1.5" stroke-opacity="1" stroke-linecap="round" stroke-miterlimit="10" d="M121.9 128.6C123.14 126.32 125.1 125.89 126.82 125.89C128.23 125.89 129.3 126.18 130.38 127.59"/><path fill="#FF4D4F" stroke="none" fill-opacity="1" stroke-width="1" stroke-opacity="1" d="M141.4 120.1C141.15 122.87 143.95 123.88 147.33 123.37C150.61 122.87 151.97 120.93 151.67 118.72C151.27 116.2 148.37 116.13 146.13 116.48C143.28 117 141.57 118.08 141.4 120.1Z"/><path fill="#FF4D4F" stroke="none" fill-opacity="1" stroke-width="1" stroke-opacity="1" d="M96.49 125.1C96.09 128.04 98.51 128.93 102.45 128.78C106.23 128.58 108.29 127.03 108.11 124.78C107.86 122.16 105.36 121.41 102.45 121.6C99.23 121.8 96.85 122.88 96.49 125.1Z"/><path fill="none" stroke="#9B4924" fill-opacity="1" stroke-width="1.2" stroke-opacity="1" stroke-linecap="round" stroke-miterlimit="10" d="M80.04 114.8C81.11 113.29 82.79 113.07 84.03 114.21C85.21 115.35 85.91 117.02 84.89 118.88"/><path fill="#FFD978" stroke="none" fill-opacity="1" stroke-width="1" stroke-opacity="1" d="M103 82.71C98.17 91.89 88.61 101.94 80.03 105.21C87.94 106.62 102.88 100.12 110.74 91.83"/><path fill="none" stroke="#9B4924" fill-opacity="1" stroke-width="1.2" stroke-opacity="1" stroke-linecap="round" stroke-miterlimit="10" d="M103 82.71C98.17 91.89 88.61 101.94 80.03 105.21C87.94 106.62 102.88 100.12 110.74 91.83"/><path fill="none" stroke="#FEF6ED" fill-opacity="1" stroke-width="3" stroke-opacity="1" stroke-linecap="round" stroke-miterlimit="10" d="M149.2 75.12C151.03 75.57 152.35 77.31 153.16 79.11"/><path fill="#FEF1C6" stroke="none" fill-opacity="1" stroke-width="1" stroke-opacity="1" d="M86.08 80.21C84.35 83.41 84.74 85.66 86.08 86.27C87.64 87.04 90.15 84.82 90.91 82.71C91.61 80.75 91.72 78.83 90.04 78.39C88.37 77.85 86.95 78.63 86.08 80.21Z"/><path fill="#FEF1C6" stroke="none" fill-opacity="1" stroke-width="1" stroke-opacity="1" d="M93.33 83.35C92.84 84.61 93.53 85.46 94.44 85.46C95.71 85.46 96.83 83.91 97.32 82.71C97.81 81.46 97.52 80.67 96.55 80.67C95.19 80.67 94.01 81.64 93.33 83.35Z"/><path fill="#FEF1C6" stroke="none" fill-opacity="1" stroke-width="1" stroke-opacity="1" d="M107.9 82.71C106.82 84.96 107.3 86.27 108.67 86.27C110.4 86.27 112.13 84.27 112.88 82.09C113.42 80.55 112.74 79.77 111.51 79.77C110.05 79.77 108.76 80.75 107.9 82.71Z"/><path fill="#FEF6ED" stroke="#5C3D2E" fill-opacity="1" stroke-width="1.2" stroke-opacity="1" stroke-linecap="round" stroke-miterlimit="10" d="M135.2 138.6C132.92 142.7 130.93 145.4 123.84 146.54C117.1 147.61 112.12 146.2 108.24 139.2C104.3367 140.52 100.4333 141.84 96.53 143.16C93.85 145.6333 91.17 148.1067 88.49 150.58C86.2733 151.2333 84.0567 151.8867 81.84 152.54C79.5267 151.71 77.2133 150.88 74.9 150.05C73.2733 150.3 71.6467 150.55 70.02 150.8C69.7133 155.2067 69.4067 159.6133 69.1 164.02C73.8733 164.3467 78.6467 164.6733 83.42 165C92.85 164.15 104.16 165.56 111.42 168.21C116.35 170.02 121.56 172.9 124.36 176.14C128.22 171.08 133.71 168.72 141.62 167.2C143.4333 159.0333 145.2467 150.8667 147.06 142.7C143.1067 141.3333 139.1533 139.9667 135.2 138.6Z"/><path fill="#FFD3B0" stroke="#9B4924" fill-opacity="1" stroke-width="1.2" stroke-opacity="1" stroke-linecap="round" stroke-miterlimit="10" d="M62.22 150.8C60.81 153.22 62.48 158.98 66.21 163.07C68.72 165.22 71.31 164.3 72.33 162.45C73.85 159.5 72.52 156.27 70.85 153.71C70.6 151.15 71.4 150.58 72.42 150.72C73.55 150.86 73.85 152.4 74.71 153.09C75.73 153.85 76.91 152.95 76.61 150.8C76.17 147.92 73.41 146 70.66 147.13C68.72 147.92 68.18 149.12 67.98 149.9C66.26 148.64 63.51 148.64 62.22 150.8Z"/><path fill="#F5A146" stroke="#5C3D2E" fill-opacity="1" stroke-width="1.2" stroke-opacity="1" stroke-linecap="round" stroke-miterlimit="10" d="M61.47 141.6C62.7567 140.97 64.0433 140.34 65.33 139.71C70.76 148.0267 76.19 156.3433 81.62 164.66C83.29 167.44 81.73 170.31 78.93 170.31C77.46 170.31 76.43 169.53 75.63 167.65C70.91 158.9667 66.19 150.2833 61.47 141.6Z"/><path fill="#9B4924" stroke="#5C3D2E" fill-opacity="1" stroke-width="1.2" stroke-opacity="1" stroke-linecap="round" stroke-miterlimit="10" d="M60.0202 138.3401C61.5269 137.7601 63.0336 137.1801 64.5402 136.6001C65.5769 137.8401 66.6136 139.0801 67.6502 140.3201C67.0536 141.2801 66.4569 142.2401 65.8602 143.2001C64.5002 143.6601 63.1402 144.1201 61.7802 144.5801C60.5202 143.2501 59.2602 141.9201 58.0002 140.5901C58.6736 139.8401 59.3469 139.0901 60.0202 138.3401ZM65.8602 143.2001C65.8602 143.2001 65.8602 143.2001 65.8602 143.2001"/><path fill="none" stroke="#5C3D2E" fill-opacity="1" stroke-width="1.5" stroke-opacity="1" stroke-linecap="round" stroke-miterlimit="10" d="M37.81 105C43.88 98.97 52.06 100.88 56.26 107.27C61.51 115.19 62.31 126.34 63.33 137.03C62.8067 137.1933 62.2833 137.3567 61.76 137.52C57.26 127.7 55.21 119.03 49.01 108.89C46.36 104.59 42.48 102.41 39.72 103.67C34.06 106.29 30.49 115.72 37.29 123.59C43.94 131.24 51.08 135.41 59.17 139.89C59.53 139.2967 59.89 138.7033 60.25 138.11C52.85 131.52 45.37 124.88 40.01 116.57C36.78 111.57 36.09 107.47 37.81 105Z"/><path fill="none" stroke="#5C3D2E" fill-opacity="1" stroke-width="1.2" stroke-opacity="1" stroke-linecap="round" stroke-miterlimit="10" d="M103.9 153.1C103.3433 157.0333 102.7867 160.9667 102.23 164.9"/><path fill="none" stroke="#5C3D2E" fill-opacity="1" stroke-width="1.2" stroke-opacity="1" stroke-linecap="round" stroke-miterlimit="10" d="M96.09 157.5C96.77 160.05 96.63 161.59 95.71 163.95"/><path fill="none" stroke="#5C3D2E" fill-opacity="1" stroke-width="1.2" stroke-opacity="1" stroke-linecap="round" d="M88.5 151C89.18 151.55 94.92 153.14 93 164.5"/><path fill="#E8DBD1" stroke="#5C3D2E" fill-opacity="1" stroke-width="2" stroke-opacity="1" stroke-linecap="round" stroke-miterlimit="10" d="M135.8 153.1C135.96 161.76 145.2 174.43 161.79 174.43C176.94 174.43 187.09 163.11 188.82 156.03C190.28 149.74 190.14 141.94 187.24 137.92C184.01 134.68 167.99 135.43 156.6 139.49C146.01 143.51 135.69 147.71 135.8 153.1Z"/><path fill="#C7B2A8" stroke="#5C3D2E" fill-opacity="1" stroke-width="1.2" stroke-opacity="1" stroke-linecap="round" stroke-miterlimit="10" d="M138.2 151.7C136.52 154.18 138.26 156.61 146.74 156.41C160.69 156.07 174.83 151.56 182.68 146.41C187.22 143.39 188.29 141.32 186.77 139.07C184.83 136.73 171.82 137.35 161.04 140.44C151.48 143.39 140.76 147.62 138.2 151.7Z"/><path fill="#FFD3B0" stroke="#5C3D2E" fill-opacity="1" stroke-width="1.2" stroke-opacity="1" stroke-linecap="round" stroke-miterlimit="10" d="M178.9 163.7C179.56 168.46 183.3 169.25 186.46 168.06C190.2 166.65 191.11 161.8 190.2 159.02C188.96 155.3 186.16 155.37 184.07 156.6C180.97 158.38 178.45 161.03 178.9 163.7Z"/><path fill="none" stroke="#FEF6ED" fill-opacity="1" stroke-width="3" stroke-opacity="1" stroke-linecap="round" stroke-miterlimit="10" d="M145.3 164.5C147.45 167.02 150.1 168.6 151.94 168.6"/><path fill="none" stroke="#FEF6ED" fill-opacity="1" stroke-width="3" stroke-opacity="1" stroke-linecap="round" stroke-miterlimit="10" d="M153.5 170.6C154.62 171.07 155.88 171.14 157.02 170.95"/><path fill="#FEF6ED" stroke="#5C3D2E" fill-opacity="1" stroke-width="1.2" stroke-opacity="1" stroke-linecap="round" stroke-miterlimit="10" d="M113.7 156C115.02 156 115.82 155.1 115.66 153.9C115.52 152.75 114.65 152.22 113.7 152.29C112.57 152.42 111.92 153.16 111.92 154.1C111.92 155.17 112.62 155.93 113.7 156Z"/><path fill="#FEF6ED" stroke="#5C3D2E" fill-opacity="1" stroke-width="1.2" stroke-opacity="1" stroke-linecap="round" stroke-miterlimit="10" d="M130.6 156C131.77 156 132.46 155.03 132.36 153.9C132.22 152.82 131.36 152.22 130.45 152.35C129.37 152.54 128.78 153.36 128.82 154.3C128.88 155.3 129.64 155.93 130.6 156Z"/><path fill="#FEF6ED" stroke="#5C3D2E" fill-opacity="1" stroke-width="1.2" stroke-opacity="1" stroke-linecap="round" stroke-miterlimit="10" d="M130.6 165.6C131.77 165.6 132.36 164.68 132.22 163.68C132.02 162.71 131.16 162.22 130.4 162.43C129.38 162.71 128.88 163.48 128.98 164.33C129.07 165.12 129.72 165.6 130.6 165.6Z"/><path fill="#FEF6ED" stroke="#5C3D2E" fill-opacity="1" stroke-width="1.2" stroke-opacity="1" stroke-linecap="round" d="M113.7962 165.8999C114.9662 165.8999 115.5562 164.9799 115.4162 163.9799C115.2162 163.0099 114.3562 162.5199 113.5962 162.7299C112.5762 163.0099 112.0762 163.7799 112.1762 164.6299C112.2662 165.4199 112.9162 165.8999 113.7962 165.8999Z"/></svg>