<svg width="19" height="22" viewBox="0 0 19 22" fill="none" xmlns="http://www.w3.org/2000/svg">
<path d="M14.7512 0.17015C15.1757 -0.125844 15.7597 -0.0261791 16.0557 0.398332L16.2777 0.716715C17.1691 1.98595 17.356 3.5767 16.8589 4.97617C18.0129 5.97822 18.7987 7.39997 18.9706 9.03549C19.0461 9.75419 18.9983 10.4583 18.8404 11.123C18.6741 11.82 17.7998 11.8726 17.4104 11.2694L16.8603 10.4081C16.6679 10.1102 16.3243 9.94207 15.9707 9.97923L13.1309 10.2777C12.6142 10.332 12.1549 9.96002 12.1006 9.44333L11.7739 6.33545C11.7196 5.81877 11.2602 5.44678 10.7435 5.50108L10.0792 5.5709C9.25176 5.65787 8.81619 4.76492 9.52533 4.33689C10.286 3.87594 11.1575 3.57225 12.1015 3.47303C13.2009 3.35748 14.2602 3.53287 15.2064 3.9401C15.3457 3.2106 15.1933 2.43321 14.7455 1.79685L14.5235 1.47847C14.2275 1.05396 14.3271 0.47003 14.7516 0.174035L14.7512 0.17015ZM6.16175 14.5255L9.00947 6.94022L10.5634 6.7769L10.8901 9.88478C10.9983 10.9143 11.9213 11.6617 12.9508 11.5535L15.911 11.2424L17.0347 13.0018C14.376 17.5271 9.68142 20.6953 4.19989 21.2715L1.9156 21.5116C0.963811 21.6116 0.109472 20.9198 0.00943526 19.968C-0.0754937 19.1599 0.414313 18.4014 1.18456 18.1437L3.0739 17.5092C4.5003 17.0293 5.63831 15.9356 6.16564 14.5251L6.16175 14.5255Z" fill="#F7A348"/>
</svg>
